<?xml version="1.0" encoding="utf-8"?>
<!-- Generator: Adobe Illustrator 26.2.1, SVG Export Plug-In . SVG Version: 6.00 Build 0)  -->
<svg version="1.1" id="Livello_1" xmlns="http://www.w3.org/2000/svg" xmlns:xlink="http://www.w3.org/1999/xlink" x="0px" y="0px"
	 viewBox="0 0 922.8 122.8" style="enable-background:new 0 0 922.8 122.8;" xml:space="preserve">
<g id="_x23_fefefeff">
</g>
<g id="_x23_303030ff">
	<path d="M398.5-1.6c12.4-0.8,25,2.7,34.9,10.3c13.5,10.2,21.1,26.9,22.4,43.6c1.4,16.1-0.9,33.1-10,46.8
		c-9,14.1-25.1,23.4-41.8,23.6c-11.7,0.6-23.8-2.1-33.4-9.1c-13.5-9.4-21.5-25.2-23.5-41.3c-2.2-17.4,0-36.1,10-50.9
		C366,7.5,381.9-1.7,398.5-1.6 M394.4,18c-7,1.3-13.2,5.8-16.7,12c-6.6,11.1-7.3,24.6-6.7,37.2c0.8,10.4,3.4,21.4,10.8,29.2
		c6.8,7.2,17.8,8.6,27.1,6.5c6.9-1.5,12.8-6.3,16.2-12.5c6.6-11.4,7.2-25.2,6.3-38.1c-0.9-10.3-4.1-21.2-12-28.4
		C412.7,17.8,402.9,16.4,394.4,18z"/>
	<path d="M0,0c16.3,0,32.6,0,48.9,0c10.3-0.1,21-0.2,30.8,3.6c9.5,3.5,17.9,11,20.9,20.9c3.1,10.4,2.1,22.4-4.1,31.4
		c-3.6,5.5-8.7,9.8-14.5,12.7c5,11.8,10.2,23.5,15.2,35.3c3.5,0.9,6.9,1.7,10.4,2.5c0,4.9,0,9.9,0,14.8c-9.9,0-19.8,0.1-29.7-0.1
		c-6.2-15.9-12.4-31.9-18.7-47.8c-7.2,0-14.4,0-21.6,0c0,10.2,0,20.4,0,30.6c4.3,0.9,8.6,1.6,12.9,2.5c0,4.9,0,9.8,0,14.7
		c-16.8,0-33.6,0-50.4,0c0-4.9,0-9.9,0-14.8c4.4-0.8,8.7-1.6,13-2.5c0-28.8,0-57.6,0-86.5c-4.4-0.8-8.7-1.7-13-2.5C0,9.8,0,4.9,0,0
		 M37.6,18.9c0.1,11.8,0,23.6,0,35.5c7.5-0.1,14.9,0.1,22.4-0.1c6-0.3,12.8-2.4,15.8-8.1c2.6-5.2,2.5-11.7,0.5-17.1
		c-2.6-6.5-9.7-10-16.4-10.2C52.4,18.9,45,19,37.6,18.9z"/>
	<path d="M120.3,14.8c0-4.9,0-9.9,0-14.8c31.4,0,62.7,0,94.1,0c0,11,0,22,0,33c-6.3,0-12.5,0-18.8,0c-0.4-4.7-0.7-9.3-1-14
		c-12.3,0-24.5,0-36.8,0c0,10,0,20,0,30.1c13.6,0,27.2,0,40.9,0c0.1,6.3,0,12.6,0,19c-13.6,0-27.3,0-40.9,0c0,11.4,0,22.8,0,34.2
		c12.9,0,25.9,0,38.8,0c0.4-4.8,0.7-9.6,1-14.4c6.2,0,12.5,0,18.7,0c0,11.1,0.1,22.2,0,33.3c-32,0-64,0-96,0c0-4.9,0-9.9,0-14.8
		c4.4-0.8,8.7-1.7,13.1-2.5c-0.1-28.8,0-57.7,0-86.5C129,16.5,124.6,15.7,120.3,14.8z"/>
	<path d="M232.1,0c17.6,0,35.2,0,52.8,0c10.4-0.3,21.2,0.6,30.5,5.7c9.1,4.7,16.2,13.4,18.3,23.5c2.3,10.6,1,22.5-5.5,31.5
		c-5.9,8.5-15.6,13.6-25.6,15.5c-10.9,2-22,0.8-33,1.1c0,8.9,0,17.7,0,26.6c4.3,0.8,8.6,1.6,12.9,2.4c0,4.9,0,9.9,0,14.8
		c-16.8,0-33.6,0-50.4,0c0-4.9,0-9.9,0-14.8c4.3-0.8,8.7-1.6,13-2.5c-0.1-28.8,0-57.7,0-86.5c-4.4-0.8-8.7-1.6-13-2.5
		C232.1,9.8,232.1,4.9,232.1,0 M269.7,18.9c0,13.2,0,26.3,0,39.5c8-0.2,16.1,0.4,24-0.3c6.3-0.5,12.2-4.3,14.7-10.2
		c3.1-7.4,2.4-16.9-3.1-23c-3.6-4.1-9.2-5.8-14.5-5.9C283.8,18.9,276.7,19,269.7,18.9z"/>
	<path d="M468.8,0c19.7,0,39.4,0,59.1,0c11.8,0.2,24.2,3,33.1,11.3c10.4,9.5,12.4,25.7,7.5,38.5c-3.3,8.2-9.9,15-17.8,18.9
		c5.2,11.7,10.2,23.5,15.3,35.2c3.4,0.9,6.9,1.7,10.4,2.4c0,4.9,0,9.9,0,14.8c-9.9,0-19.7,0-29.6,0c-6.3-15.9-12.4-31.9-18.7-47.9
		c-7.2,0-14.4,0-21.7,0c0,10.2,0,20.4,0,30.6c4.3,0.8,8.6,1.7,12.9,2.5c0,4.9,0,9.9,0,14.8c-16.8,0.1-33.6,0.1-50.4,0
		c0.1-4.9-0.2-9.9,0.2-14.8c4.3-0.7,8.6-1.6,12.9-2.4c-0.1-28.8,0-57.6-0.1-86.5c-4.4-0.8-8.7-1.6-13-2.5
		C468.8,9.8,468.8,4.9,468.8,0 M506.3,54.4c7.2,0,14.4,0,21.6,0c5.5-0.2,11.5-1.6,15.2-5.9c4.2-5.2,4.2-12.7,2.2-18.8
		c-2.4-6.8-9.6-10.5-16.4-10.7c-7.5-0.1-15,0-22.5-0.1C506.4,30.7,506.3,42.6,506.3,54.4z"/>
	<path d="M584.4,33.5c-0.2-11.2,0-22.3-0.1-33.5c36,0,72,0,108,0c0,11.2,0,22.3,0,33.5c-6.2,0-12.4,0-18.6,0
		c-0.5-4.8-0.9-9.7-1.3-14.5c-7.3,0-14.6,0-21.9,0c0,28.3,0.1,56.6,0,84.9c4.3,0.8,8.7,1.6,13,2.5c0,4.9,0,9.9,0,14.8
		c-16.8,0-33.6,0-50.4,0c0-4.9,0-9.9,0-14.8c4.3-0.8,8.5-1.6,12.8-2.4c0.1-28.3,0-56.6,0-84.9c-7.3,0-14.5,0-21.8,0
		c-0.4,4.8-0.8,9.7-1.2,14.5C596.7,33.5,590.6,33.4,584.4,33.5z"/>
	<path d="M703.4,14.8c0-5,0-9.9,0-14.8c31.4,0,62.7,0,94.1,0c0,11,0,22,0,33c-6.3,0-12.6,0.2-18.9-0.1c-0.3-4.6-0.6-9.3-1-13.9
		c-12.3,0-24.6,0-36.8,0c0.2,10,0.2,20,0,30c13.6,0,27.2,0,40.9,0c0.1,6.3,0,12.6,0,19c-13.6,0-27.3,0-40.9,0
		c0.2,11.4,0.1,22.8,0.1,34.2c12.9,0,25.8,0,38.7,0c0.4-4.8,0.7-9.6,1-14.4c6.2-0.1,12.5,0,18.7,0c0.1,11.1-0.1,22.1,0.1,33.2
		c-32,0.3-64-0.1-96,0.2c-0.2-4.9-0.1-9.9-0.1-14.9c4.3-0.8,8.7-1.7,13-2.5c-0.1-28.8,0-57.6,0-86.5
		C712.1,16.5,707.7,15.7,703.4,14.8z"/>
	<path d="M815.2,0c17.2-0.1,34.5,0,51.7,0c8.5-0.2,17.2,0.1,25.4,2.7c8.2,2.5,15.8,7.6,20.3,14.9c4.7,7.6,5.6,17,4.2,25.7
		c-2,11-9.8,20.4-19.6,25.3c5,11.7,10.2,23.4,15.2,35.2c3.4,0.9,6.9,1.7,10.4,2.5c0,4.9,0,9.9,0,14.8c-9.9,0-19.7,0.1-29.6,0
		c-6.4-15.9-12.3-32-18.8-47.9c-7.2,0.1-14.4,0-21.6,0.1c0,10.2,0,20.4,0,30.6c4.3,0.8,8.6,1.7,12.9,2.5c0,4.9,0,9.9,0,14.8
		c-16.8,0-33.6,0-50.4,0c-0.1-4.9-0.1-9.9,0-14.8c4.3-0.8,8.7-1.6,13-2.5c-0.1-28.8,0-57.7,0-86.5c-4.4-0.8-8.7-1.6-13.1-2.5
		C815.2,9.8,815.2,4.9,815.2,0 M852.7,18.9c0,11.8,0,23.6,0,35.5c5,0,10.1,0,15.1,0c7,0.1,14.8,0.2,20.4-4.6
		c5.7-5.4,6-14.7,2.8-21.5c-2.9-6.1-9.8-9.1-16.2-9.2C867.5,18.9,860.1,19,852.7,18.9z"/>
</g>
</svg>
