<?xml version="1.0" encoding="utf-8"?>
<!-- Generator: Adobe Illustrator 26.1.0, SVG Export Plug-In . SVG Version: 6.00 Build 0)  -->
<svg version="1.1" id="Livello_1" xmlns="http://www.w3.org/2000/svg" xmlns:xlink="http://www.w3.org/1999/xlink" x="0px" y="0px"
	 viewBox="0 0 1443 295" style="enable-background:new 0 0 1443 295;" xml:space="preserve">
<g id="_x23_fefefeff">
</g>
<g id="_x23_303030ff">
	<path d="M174.5,34.1c21.1-4.7,42.4-11.3,64.3-10.3C256,24.6,273,31.6,285,44c13.6,14.2,21.4,32.5,28.5,50.5
		c6,15.1,11.6,30.3,17.1,45.5c-7.6,4.6-15.9,8.2-24.2,11.2c-39.6,14.2-80.9,22.9-122.5,29c-4.6,0.5-9.1,1.6-13.8,1.4
		c-4.8-25.4-10.3-50.8-15.1-76.2c-22.6,5.3-45.2,10.8-67.7,16.3c3.8,21.3,7.5,42.7,11.1,64.1c-9.2,0-18.4-0.6-27.7-1.2
		c0.2-14.2,0.6-28.4,1-42.7c0.7-20.1,1.2-40.3,5.3-59.9c2-9.2,5.5-18.9,13.4-24.5c15.9-11.1,35.5-15.4,54.6-16.3
		c16-0.8,31.2,5.1,47,6.5c17.5,1.8,35-1.6,51.8-6c4.2-1.4,3.7-7.9,0.2-9.9c-4.5-0.2-8.7,1.4-13,2.2c-10.5,2.3-21.2,4.1-32,3.8
		C190.7,37.7,182.6,35.5,174.5,34.1z"/>
	<path d="M905.6,87.1c12.4-0.8,25,2.7,34.9,10.3c13.5,10.2,21.1,26.9,22.4,43.6c1.4,16.1-0.9,33.1-10,46.8
		c-9,14.1-25.1,23.4-41.8,23.6c-11.7,0.6-23.8-2.1-33.4-9.1c-13.5-9.4-21.5-25.2-23.5-41.3c-2.2-17.4,0-36.1,10-50.9
		C873.1,96.2,889,87,905.6,87.1 M901.5,106.7c-7,1.3-13.2,5.8-16.7,12c-6.6,11.1-7.3,24.6-6.7,37.2c0.8,10.4,3.4,21.4,10.8,29.2
		c6.8,7.2,17.8,8.6,27.1,6.5c6.9-1.5,12.8-6.3,16.2-12.5c6.6-11.4,7.2-25.2,6.3-38.1c-0.9-10.3-4.1-21.2-12-28.4
		C919.8,106.5,910,105.1,901.5,106.7z"/>
	<path d="M507.1,88.7c16.3,0,32.6,0,48.9,0c10.3-0.1,21-0.2,30.8,3.6c9.5,3.5,17.9,11,20.9,20.9c3.1,10.4,2.1,22.4-4.1,31.4
		c-3.6,5.5-8.7,9.8-14.5,12.7c5,11.8,10.2,23.5,15.2,35.3c3.5,0.9,6.9,1.7,10.4,2.5c0,4.9,0,9.9,0,14.8c-9.9,0-19.8,0.1-29.7-0.1
		c-6.2-15.9-12.4-31.9-18.7-47.8c-7.2,0-14.4,0-21.6,0c0,10.2,0,20.4,0,30.6c4.3,0.9,8.6,1.6,12.9,2.5c0,4.9,0,9.8,0,14.7
		c-16.8,0-33.6,0-50.4,0c0-4.9,0-9.9,0-14.8c4.4-0.8,8.7-1.6,13-2.5c0-28.8,0-57.6,0-86.5c-4.4-0.8-8.7-1.7-13-2.5
		C507.1,98.5,507.1,93.6,507.1,88.7 M544.7,107.6c0.1,11.8,0,23.6,0,35.5c7.5-0.1,14.9,0.1,22.4-0.1c6-0.3,12.8-2.4,15.8-8.1
		c2.6-5.2,2.5-11.7,0.5-17.1c-2.6-6.5-9.7-10-16.4-10.2C559.5,107.6,552.1,107.7,544.7,107.6z"/>
	<path d="M627.4,103.5c0-4.9,0-9.9,0-14.8c31.4,0,62.7,0,94.1,0c0,11,0,22,0,33c-6.3,0-12.5,0-18.8,0c-0.4-4.7-0.7-9.3-1-14
		c-12.3,0-24.5,0-36.8,0c0,10,0,20,0,30.1c13.6,0,27.2,0,40.9,0c0.1,6.3,0,12.6,0,19c-13.6,0-27.3,0-40.9,0c0,11.4,0,22.8,0,34.2
		c12.9,0,25.9,0,38.8,0c0.4-4.8,0.7-9.6,1-14.4c6.2,0,12.5,0,18.7,0c0,11.1,0.1,22.2,0,33.3c-32,0-64,0-96,0c0-4.9,0-9.9,0-14.8
		c4.4-0.8,8.7-1.7,13.1-2.5c-0.1-28.8,0-57.7,0-86.5C636.1,105.2,631.7,104.4,627.4,103.5z"/>
	<path d="M739.2,88.7c17.6,0,35.2,0,52.8,0c10.4-0.3,21.2,0.6,30.5,5.7c9.1,4.7,16.2,13.4,18.3,23.5c2.3,10.6,1,22.5-5.5,31.5
		c-5.9,8.5-15.6,13.6-25.6,15.5c-10.9,2-22,0.8-33,1.1c0,8.9,0,17.7,0,26.6c4.3,0.8,8.6,1.6,12.9,2.4c0,4.9,0,9.9,0,14.8
		c-16.8,0-33.6,0-50.4,0c0-4.9,0-9.9,0-14.8c4.3-0.8,8.7-1.6,13-2.5c-0.1-28.8,0-57.7,0-86.5c-4.4-0.8-8.7-1.6-13-2.5
		C739.2,98.5,739.2,93.6,739.2,88.7 M776.8,107.6c0,13.2,0,26.3,0,39.5c8-0.2,16.1,0.4,24-0.3c6.3-0.5,12.2-4.3,14.7-10.2
		c3.1-7.4,2.4-16.9-3.1-23c-3.6-4.1-9.2-5.8-14.5-5.9C790.9,107.6,783.8,107.7,776.8,107.6z"/>
	<path d="M975.9,88.7c19.7,0,39.4,0,59.1,0c11.8,0.2,24.2,3,33.1,11.3c10.4,9.5,12.4,25.7,7.5,38.5c-3.3,8.2-9.9,15-17.8,18.9
		c5.2,11.7,10.2,23.5,15.3,35.2c3.4,0.9,6.9,1.7,10.4,2.4c0,4.9,0,9.9,0,14.8c-9.9,0-19.7,0-29.6,0c-6.3-15.9-12.4-31.9-18.7-47.9
		c-7.2,0-14.4,0-21.7,0c0,10.2,0,20.4,0,30.6c4.3,0.8,8.6,1.7,12.9,2.5c0,4.9,0,9.9,0,14.8c-16.8,0.1-33.6,0.1-50.4,0
		c0.1-4.9-0.2-9.9,0.2-14.8c4.3-0.7,8.6-1.6,12.9-2.4c-0.1-28.8,0-57.6-0.1-86.5c-4.4-0.8-8.7-1.6-13-2.5
		C975.9,98.5,975.9,93.6,975.9,88.7 M1013.4,143.1c7.2,0,14.4,0,21.6,0c5.5-0.2,11.5-1.6,15.2-5.9c4.2-5.2,4.2-12.7,2.2-18.8
		c-2.4-6.8-9.6-10.5-16.4-10.7c-7.5-0.1-15,0-22.5-0.1C1013.5,119.4,1013.4,131.3,1013.4,143.1z"/>
	<path d="M1091.5,122.2c-0.2-11.2,0-22.3-0.1-33.5c36,0,72,0,108,0c0,11.2,0,22.3,0,33.5c-6.2,0-12.4,0-18.6,0
		c-0.5-4.8-0.9-9.7-1.3-14.5c-7.3,0-14.6,0-21.9,0c0,28.3,0.1,56.6,0,84.9c4.3,0.8,8.7,1.6,13,2.5c0,4.9,0,9.9,0,14.8
		c-16.8,0-33.6,0-50.4,0c0-4.9,0-9.9,0-14.8c4.3-0.8,8.5-1.6,12.8-2.4c0.1-28.3,0-56.6,0-84.9c-7.3,0-14.5,0-21.8,0
		c-0.4,4.8-0.8,9.7-1.2,14.5C1103.8,122.2,1097.7,122.1,1091.5,122.2z"/>
	<path d="M1210.5,103.5c0-5,0-9.9,0-14.8c31.4,0,62.7,0,94.1,0c0,11,0,22,0,33c-6.3,0-12.6,0.2-18.9-0.1c-0.3-4.6-0.6-9.3-1-13.9
		c-12.3,0-24.6,0-36.8,0c0.2,10,0.2,20,0,30c13.6,0,27.2,0,40.9,0c0.1,6.3,0,12.6,0,19c-13.6,0-27.3,0-40.9,0
		c0.2,11.4,0.1,22.8,0.1,34.2c12.9,0,25.8,0,38.7,0c0.4-4.8,0.7-9.6,1-14.4c6.2-0.1,12.5,0,18.7,0c0.1,11.1-0.1,22.1,0.1,33.2
		c-32,0.3-64-0.1-96,0.2c-0.2-4.9-0.1-9.9-0.1-14.9c4.3-0.8,8.7-1.7,13-2.5c-0.1-28.8,0-57.6,0-86.5
		C1219.2,105.2,1214.8,104.4,1210.5,103.5z"/>
	<path d="M1322.3,88.7c17.2-0.1,34.5,0,51.7,0c8.5-0.2,17.2,0.1,25.4,2.7c8.2,2.5,15.8,7.6,20.3,14.9c4.7,7.6,5.6,17,4.2,25.7
		c-2,11-9.8,20.4-19.6,25.3c5,11.7,10.2,23.4,15.2,35.2c3.4,0.9,6.9,1.7,10.4,2.5c0,4.9,0,9.9,0,14.8c-9.9,0-19.7,0.1-29.6,0
		c-6.4-15.9-12.3-32-18.8-47.9c-7.2,0.1-14.4,0-21.6,0.1c0,10.2,0,20.4,0,30.6c4.3,0.8,8.6,1.7,12.9,2.5c0,4.9,0,9.9,0,14.8
		c-16.8,0-33.6,0-50.4,0c-0.1-4.9-0.1-9.9,0-14.8c4.3-0.8,8.7-1.6,13-2.5c-0.1-28.8,0-57.7,0-86.5c-4.4-0.8-8.7-1.6-13.1-2.5
		C1322.3,98.5,1322.3,93.6,1322.3,88.7 M1359.8,107.6c0,11.8,0,23.6,0,35.5c5,0,10.1,0,15.1,0c7,0.1,14.8,0.2,20.4-4.6
		c5.7-5.4,6-14.7,2.8-21.5c-2.9-6.1-9.8-9.1-16.2-9.2C1374.6,107.6,1367.2,107.7,1359.8,107.6z"/>
	<path d="M339.6,134.1c21.3,7.2,42.8,14.4,62,26.3c10.3,6.3,20.4,14.2,25.5,25.5c2.9,6.9,4.7,14.7,2.7,22.1
		c-2.2,9.6-8.8,17.6-16.6,23.2c-13.2,9.5-28.8,14.8-44.3,19.2c-5.2,1.6-10.6,2-16,2.6c-26.7,2.8-53.6,0.8-80.1-2.9
		c-24.9-3.5-49.5-9-74-14.4c-6.7-1.4-13.4-3.1-20.2-4c24.4-2.2,48.8-5,72.8-9.6c22.8-4.3,45.7-8.6,67.4-17.2
		c11-4.4,21.6-10,30.9-17.3c1-1.2,2.3-0.1,3.3,0.4c8.1,4.4,17.1,7.1,26,9.6c9.8,2.8,19.9,5.3,30.1,5.3c2.4-1.8,2.5-7.2-1.1-7.6
		c-8.4-1.1-16.3-4.3-24.2-7.2c-10.1-3.6-20.2-7.2-30-11.7C349.4,162.2,344.5,148.1,339.6,134.1z"/>
	<path d="M283,169.9c17.4-5.4,35.2-10.4,51.1-19.5c3.2,9.5,6.4,19,9.4,28.6c-10,7.6-21.5,12.8-33.3,17.1
		c-20.4,7.6-41.7,12.4-63.1,16.4c-34,6.3-68.6,10-103.2,10.5c-4.7,0.5-9.4,0-14-1c-19.9-3.3-39.8-6.4-59.5-10.9
		c-0.1-5.5,0-10.9,0.1-16.4c26.6,1.9,53.4,1.4,80-0.6C195.3,190.2,239.8,182.4,283,169.9z"/>
	<path d="M21,179c12.6-7.2,26.7-11.1,40.2-16.1c-0.6,15.2-0.4,30.5-0.6,45.7c-12.2-3.4-24.7-6.5-36.3-11.9c-4.1-2.3-9-4.6-11.2-8.9
		C13.4,183.6,17.8,181.2,21,179z"/>
	<path d="M21.1,206.9c19.2,8.3,39.7,12.7,60.1,16.9c23.9,4.9,48.2,7.6,72.2,12.5c40.9,8.1,81.2,19.2,122.6,24.6
		c7.9,1,15.7,1.9,23.6,2c-2.9,0.4-5.7,1.1-8.6,1.4c-27.6,2.5-55.4,3.2-83.1,1.4c-23.6-1-47.2-3.1-70.8-5.6
		c-20.6-2.4-41.5-3.9-61.3-10.2C53.1,243.1,33,227.7,21.1,206.9z"/>
</g>
</svg>
